<?xml version="1.0" encoding="UTF-8" standalone="no"?><!DOCTYPE svg PUBLIC "-//W3C//DTD SVG 1.1//EN" "http://www.w3.org/Graphics/SVG/1.1/DTD/svg11.dtd"><svg width="100%" height="100%" viewBox="0 0 184 199" version="1.1" xmlns="http://www.w3.org/2000/svg" xmlns:xlink="http://www.w3.org/1999/xlink" xml:space="preserve" xmlns:serif="http://www.serif.com/" style="fill-rule:evenodd;clip-rule:evenodd;stroke-linejoin:round;stroke-miterlimit:2;"><g><path d="M81.804,140.733l-14,0.154c-0,-0 -24.291,-4.407 -30.044,-11.076c-5.753,-6.668 -6.857,-15.392 -3.313,-26.174c3.528,-10.73 10.373,-19.544 20.536,-26.442c10.162,-6.898 35.47,-11.957 35.47,-11.957l18.139,-0.153c-0,0 22.608,4.241 28.318,10.73c5.709,6.49 6.825,15.023 3.348,25.6c-3.73,11.343 -10.914,20.489 -21.553,27.438c-10.639,6.95 -36.901,11.88 -36.901,11.88Zm6.966,-69.21c-6.605,0.818 -12.728,3.666 -18.369,8.546c-5.641,4.88 -10.065,12.199 -13.274,21.959c-2.991,9.095 -3.468,16.491 -1.432,22.188c2.036,5.698 6.778,9.108 14.226,10.232c6.663,-21.664 12.946,-42.639 18.849,-62.925Zm-4.925,63.002c7.933,-0.817 14.745,-3.858 20.435,-9.121c5.69,-5.263 10.123,-12.723 13.298,-22.38c2.991,-9.095 3.371,-16.351 1.14,-21.767c-2.23,-5.416 -6.447,-8.635 -12.652,-9.657c-7.298,20.49 -14.706,41.465 -22.221,62.925Z" style="fill:#999;fill-rule:nonzero;"/><path d="M151.443,36.686c-0.544,2.11 -1.607,4.309 -3.189,6.596c-1.582,2.287 -2.842,3.34 -3.779,3.158c-0.625,-0.121 -2.563,-1.225 -5.815,-3.313c-2.307,-1.419 -4.945,-2.416 -7.913,-2.99c-7.083,-1.371 -12.957,1.247 -17.624,7.854c-3.374,4.803 -7.21,13.813 -11.507,27.029l-17.843,54.978c-4.128,12.924 -9.822,22.803 -17.082,29.638c-7.259,6.834 -14.586,9.536 -21.981,8.104c-5.989,-1.159 -8.573,-3.334 -7.752,-6.525c1.323,-5.362 3.573,-7.736 6.75,-7.122c0.521,0.101 1.835,0.95 3.943,2.546c1.15,1.25 2.558,2.035 4.225,2.358c6.926,1.34 13.207,-6.791 18.843,-24.394l19.249,-60.217c4.202,-13.018 10.116,-23.57 17.742,-31.657c9.64,-10.237 20.371,-14.211 32.192,-11.923c4.375,0.846 6.744,1.305 7.109,1.376c3.455,1.1 4.933,2.602 4.432,4.504Z" style="fill:#999;fill-rule:nonzero;stroke:#999;stroke-width:2.82px;"/><path d="M3.859,116.892c-0.259,0.679 -0.845,1.23 -1.518,1.36c-0.907,0.179 -1.624,-0.47 -1.609,-1.442c0.209,-13.25 2.876,-26.678 7.921,-39.906c2.275,-5.965 5.016,-11.812 8.149,-17.383c0.51,-0.907 1.528,-1.328 2.27,-0.935c0.743,0.39 0.947,1.443 0.425,2.347c-3.021,5.375 -5.664,11.017 -7.858,16.768c-4.865,12.756 -7.438,25.7 -7.64,38.476l-0.14,0.715Zm62.881,-103.583c-0.183,0.478 -0.539,0.917 -1.004,1.169c-6.702,3.682 -13.152,8.165 -19.174,13.333c-0.77,0.665 -1.777,0.61 -2.241,-0.122c-0.462,-0.731 -0.219,-1.864 0.557,-2.527c6.243,-5.36 12.93,-10.012 19.882,-13.826c0.863,-0.47 1.779,-0.152 2.048,0.719c0.124,0.395 0.09,0.839 -0.068,1.254Zm-40.199,164.496l-0.408,0.68c-0.673,0.79 -1.705,0.942 -2.307,0.347c-3.213,-3.202 -6.166,-6.772 -8.771,-10.618c-0.488,-0.713 -0.263,-1.847 0.502,-2.531c0.758,-0.683 1.769,-0.656 2.253,0.059c2.513,3.707 5.359,7.153 8.46,10.236c0.441,0.438 0.525,1.161 0.271,1.827Zm68.387,-174.887c-0.258,0.676 -0.843,1.235 -1.518,1.368c-4.658,0.907 -9.364,2.231 -13.993,3.938c-0.891,0.33 -1.723,-0.158 -1.853,-1.091c-0.128,-0.938 0.492,-1.959 1.384,-2.281c4.798,-1.772 9.682,-3.149 14.514,-4.09c0.903,-0.18 1.625,0.466 1.606,1.442l-0.14,0.714Zm-39.954,191.733l-0.017,0.044c-0.386,0.955 -1.362,1.538 -2.177,1.295c-6.604,-1.971 -12.806,-4.857 -18.435,-8.577c-0.701,-0.467 -0.809,-1.547 -0.236,-2.422c0.57,-0.873 1.6,-1.202 2.301,-0.743c5.422,3.592 11.403,6.37 17.772,8.272c0.804,0.24 1.153,1.185 0.792,2.131Zm114.125,-162.837c-0.127,0.331 -0.334,0.644 -0.617,0.897c-0.761,0.681 -1.772,0.655 -2.254,-0.064c-9.266,-13.735 -22.553,-23.232 -38.424,-27.465c-0.827,-0.221 -1.195,-1.181 -0.828,-2.145c0.368,-0.963 1.332,-1.565 2.159,-1.344c16.457,4.39 30.24,14.24 39.852,28.488c0.303,0.453 0.327,1.067 0.112,1.633Zm-27.51,138.711c-0.125,0.328 -0.33,0.642 -0.613,0.891c-15.203,13.614 -32.729,22.643 -50.682,26.114c-0.902,0.176 -1.619,-0.472 -1.607,-1.446c0.021,-0.963 0.761,-1.905 1.666,-2.08c17.312,-3.344 34.212,-12.053 48.869,-25.179c0.764,-0.681 1.772,-0.655 2.258,0.06c0.304,0.454 0.326,1.072 0.109,1.64Zm41.057,-80.416c-0.28,0.733 -0.933,1.307 -1.656,1.383c-0.896,0.093 -1.551,-0.627 -1.463,-1.61c0.698,-7.646 0.547,-15.209 -0.44,-22.486c-0.128,-0.938 0.492,-1.952 1.385,-2.277c0.897,-0.329 1.721,0.164 1.848,1.097c1.028,7.543 1.183,15.391 0.458,23.324l-0.132,0.569Zm-7.314,31.141c-0.367,0.963 -1.332,1.568 -2.156,1.348c-0.825,-0.216 -1.196,-1.177 -0.829,-2.141c1.909,-5.019 3.479,-10.137 4.672,-15.214c0.232,-0.982 1.126,-1.731 1.998,-1.668c0.874,0.064 1.394,0.914 1.16,1.898c-1.237,5.269 -2.867,10.576 -4.845,15.777Z" style="fill:#999;fill-rule:nonzero;stroke:#999;stroke-width:1.46px;"/></g></svg>