<?xml version="1.0" encoding="UTF-8" standalone="no"?><!DOCTYPE svg PUBLIC "-//W3C//DTD SVG 1.1//EN" "http://www.w3.org/Graphics/SVG/1.1/DTD/svg11.dtd"><svg width="100%" height="100%" viewBox="0 0 514 86" version="1.1" xmlns="http://www.w3.org/2000/svg" xmlns:xlink="http://www.w3.org/1999/xlink" xml:space="preserve" xmlns:serif="http://www.serif.com/" style="fill-rule:evenodd;clip-rule:evenodd;stroke-linejoin:round;stroke-miterlimit:2;"><g><path d="M2.821,4.706l42.769,-0l-0,7.643l-35.021,-0l-0,24.289l20.782,0l0,7.643l-20.782,0l-0,38.057l-7.748,0l0,-77.632Z" style="fill:#999;fill-rule:nonzero;stroke:#999;stroke-width:5.64px;"/><path d="M86.107,22.19c8.83,0 16.159,3.193 21.987,9.58c5.374,5.828 8.061,12.755 8.061,20.782c0.07,19.823 0.07,29.891 0,30.205l-7.799,0l-0,-13.035c-4.084,7.608 -11.5,11.866 -22.249,12.773c-8.794,0 -15.974,-2.992 -21.541,-8.977c-5.566,-5.985 -8.349,-12.974 -8.349,-20.966c-0,-7.957 2.634,-14.867 7.904,-20.73c5.828,-6.421 13.157,-9.632 21.986,-9.632Zm0,7.224c-6.107,0 -11.359,2.269 -15.756,6.806c-4.398,4.536 -6.596,10.016 -6.596,16.437c-0,4.153 1.125,8.149 3.376,11.988c2.251,3.839 6.064,7.084 11.438,9.736c13.471,3.002 23.051,-3.123 28.74,-18.374c0.314,-4.886 -0.21,-9.562 -1.571,-14.029c-0.977,-2.024 -2.321,-3.944 -4.031,-5.758c-4.292,-4.537 -9.492,-6.806 -15.6,-6.806Z" style="fill:#999;fill-rule:nonzero;stroke:#999;stroke-width:5.64px;"/><path d="M127.672,82.338l0,-33.084c0.558,-3.455 1.361,-6.264 2.408,-8.428c2.443,-6.002 5.723,-10.4 9.842,-13.192c4.118,-2.792 7.538,-4.187 10.26,-4.187c2.024,-0 4.188,0.663 6.491,1.989l-3.821,6.177c-3.246,-1.187 -6.465,-0.227 -9.659,2.879c-3.193,3.106 -5.4,6.491 -6.622,10.156c-0.907,3.245 -1.361,9.335 -1.361,18.269l0,19.421l-7.538,0Z" style="fill:#999;fill-rule:nonzero;stroke:#999;stroke-width:5.64px;"/><path d="M162.85,82.443l0,-31.409c0.628,-7.817 2.269,-13.541 4.921,-17.17c2.198,-3.316 5.078,-5.95 8.637,-7.905c2.339,-1.5 5.671,-2.303 9.999,-2.408c2.792,0 5.619,0.524 8.48,1.571c2.862,1.047 5.078,2.443 6.649,4.188c1.57,1.744 3.158,4.362 4.763,7.852c0.873,-2.234 2.705,-4.851 5.497,-7.852c1.361,-1.152 3.123,-2.286 5.287,-3.403c1.466,-0.942 4.868,-1.728 10.208,-2.356c3.978,0 7.8,0.995 11.464,2.984c3.665,1.989 6.238,4.79 7.722,8.402c1.483,3.612 2.224,8.995 2.224,16.149l0,31.357l-7.538,0l0,-31.357c0,-6.142 -0.436,-10.365 -1.309,-12.668c-0.872,-2.303 -2.373,-4.162 -4.501,-5.575c-2.129,-1.413 -4.694,-2.12 -7.696,-2.12c-5.653,0.384 -10.487,3.123 -14.5,8.219c-1.571,2.163 -2.757,6.962 -3.56,14.395l0,29.106l-7.381,0l0,-29.42c0,-6.91 -0.768,-11.612 -2.303,-14.108c-1.536,-2.495 -3.368,-4.484 -5.497,-5.967c-2.129,-1.483 -4.781,-2.225 -7.957,-2.225c-3.42,-0 -6.36,0.872 -8.821,2.617c-2.46,1.745 -4.388,4.354 -5.784,7.826c-1.396,3.473 -1.954,9.118 -1.675,16.935l-0,24.342l-7.329,0Z" style="fill:#999;fill-rule:nonzero;stroke:#999;stroke-width:5.64px;"/><path d="M291.313,22.19c8.829,0 16.158,3.193 21.986,9.58c5.375,5.828 8.062,12.755 8.062,20.782c0.07,19.823 0.07,29.891 -0,30.205l-7.8,0l-0,-13.035c-4.083,7.608 -11.499,11.866 -22.248,12.773c-8.795,0 -15.975,-2.992 -21.541,-8.977c-5.567,-5.985 -8.35,-12.974 -8.35,-20.966c-0,-7.957 2.635,-14.867 7.905,-20.73c5.828,-6.421 13.156,-9.632 21.986,-9.632Zm-0,7.224c-6.107,0 -11.36,2.269 -15.757,6.806c-4.397,4.536 -6.596,10.016 -6.596,16.437c0,4.153 1.126,8.149 3.377,11.988c2.251,3.839 6.063,7.084 11.438,9.736c13.471,3.002 23.05,-3.123 28.739,-18.374c0.314,-4.886 -0.209,-9.562 -1.571,-14.029c-0.977,-2.024 -2.32,-3.944 -4.03,-5.758c-4.293,-4.537 -9.493,-6.806 -15.6,-6.806Z" style="fill:#999;fill-rule:nonzero;stroke:#999;stroke-width:5.64px;"/><path d="M335.6,2.821l7.433,0l-0,45.334l26.541,-23.138l10.888,-0l-24.028,21.829l25.86,35.597l-10.469,0l-22.615,-30.885l-6.177,5.077l-0,25.808l-7.433,0l-0,-79.622Z" style="fill:#999;fill-rule:nonzero;stroke:#999;stroke-width:5.64px;"/><path d="M417.001,22.19c8.83,0 16.158,3.193 21.986,9.58c5.27,5.863 7.905,12.79 7.905,20.782c0,7.992 -2.792,14.981 -8.376,20.966c-5.583,5.985 -12.755,8.977 -21.515,8.977c-8.794,0 -15.975,-2.992 -21.541,-8.977c-5.567,-5.985 -8.35,-12.974 -8.35,-20.966c0,-7.957 2.635,-14.867 7.905,-20.73c5.828,-6.421 13.157,-9.632 21.986,-9.632Zm0,7.224c-6.107,0 -11.359,2.269 -15.757,6.806c-4.397,4.536 -6.596,10.016 -6.596,16.437c0,4.153 1.004,8.035 3.01,11.647c2.007,3.612 4.721,6.387 8.141,8.324c3.42,1.937 7.154,2.905 11.202,2.905c4.118,0 7.879,-0.968 11.281,-2.905c3.403,-1.937 6.099,-4.712 8.088,-8.324c1.989,-3.612 2.984,-7.494 2.984,-11.647c-0,-6.421 -2.199,-11.901 -6.596,-16.437c-4.397,-4.537 -9.65,-6.806 -15.757,-6.806Z" style="fill:#999;fill-rule:nonzero;stroke:#999;stroke-width:5.64px;"/><path d="M460.45,60.666l-0.104,-6.125c-0.105,-3.001 0.017,-5.548 0.366,-7.642c0.768,-6.596 2.443,-11.43 5.025,-14.501c2.513,-2.687 5.078,-4.764 7.696,-6.229c4.327,-1.85 9.265,-2.722 14.814,-2.618c4.328,0 8.332,1.091 12.014,3.272c3.682,2.181 6.308,5.113 7.879,8.795c1.57,3.681 2.355,9.448 2.355,17.301l0,29.524l-7.329,0l0,-27.378c0,-6.631 -0.279,-11.063 -0.837,-13.297c-0.873,-3.804 -2.6,-6.499 -5.183,-8.087c-2.582,-1.588 -6.404,-2.382 -11.464,-2.382c-4.467,-0 -8.445,1.291 -11.935,3.874c-3.49,2.582 -5.113,6.107 -4.869,10.574c-0.663,2.862 -0.994,8.079 -0.994,15.652l-0,21.044l-7.434,0l0,-21.777Z" style="fill:#999;fill-rule:nonzero;stroke:#999;stroke-width:5.64px;"/></g></svg>